<svg width="38.000000" height="8.000000" viewBox="0 0 38 8" fill="none" xmlns="http://www.w3.org/2000/svg" xmlns:xlink="http://www.w3.org/1999/xlink">
	<desc>
			Created with Pixso.
	</desc>
	<defs/>
	<path id="Cootels" d="M31.32 -0.42L30.07 -0.42L30.07 7L31.32 7L31.32 -0.42ZM1.53 6.76Q2.28 7.1 3.17 7.1Q4.03 7.1 4.75 6.79Q5.22 6.6 5.59 6.29Q5.79 6.12 5.96 5.93L5.12 5.12Q4.72 5.56 4.22 5.77Q3.77 5.95 3.25 5.95Q2.61 5.95 2.09 5.71Q2.02 5.68 1.95 5.64Q1.65 5.47 1.42 5.24Q1.21 5.03 1.07 4.77Q1.02 4.68 0.98 4.59Q0.75 4.1 0.75 3.49Q0.75 2.89 0.98 2.4Q1.02 2.31 1.07 2.23Q1.22 1.96 1.43 1.75Q1.66 1.51 1.95 1.35Q2.02 1.31 2.09 1.28Q2.61 1.04 3.25 1.04Q3.78 1.04 4.24 1.23Q4.72 1.43 5.12 1.86L5.96 1.06Q5.77 0.85 5.56 0.68Q5.2 0.38 4.75 0.2Q4.04 -0.1 3.18 -0.1Q2.3 -0.1 1.55 0.22Q1.41 0.29 1.27 0.36Q0.79 0.62 0.43 0.99Q0.14 1.29 -0.07 1.65Q-0.2 1.85 -0.29 2.07Q-0.57 2.72 -0.57 3.49Q-0.57 4.29 -0.28 4.96Q-0.19 5.16 -0.08 5.34Q0.13 5.69 0.4 5.98Q0.77 6.36 1.26 6.63Q1.39 6.7 1.53 6.76ZM22.46 6.98Q22.78 6.89 23 6.7L22.64 5.82Q22.61 5.84 22.57 5.87Q22.31 6.04 21.95 6.04Q21.63 6.04 21.45 5.88Q21.42 5.86 21.39 5.83Q21.21 5.63 21.21 5.23L21.21 2.7L22.63 2.7L22.63 1.69L21.21 1.69L21.21 0.47L19.96 0.47L19.96 1.69L19.07 1.69L19.07 2.7L19.96 2.7L19.96 5.26Q19.96 6.07 20.36 6.52Q20.39 6.57 20.43 6.61Q20.46 6.63 20.49 6.65Q20.96 7.07 21.79 7.07Q22.15 7.07 22.46 6.98ZM7.98 6.79Q8.57 7.07 9.29 7.07Q10.05 7.07 10.66 6.77Q10.71 6.74 10.75 6.72Q11.13 6.52 11.4 6.23Q11.61 6.01 11.77 5.74Q11.84 5.62 11.89 5.5Q12.13 4.97 12.13 4.32Q12.13 3.68 11.89 3.15Q11.83 3.03 11.77 2.92Q11.62 2.66 11.42 2.45Q11.14 2.15 10.75 1.95Q10.7 1.92 10.65 1.89Q10.04 1.59 9.29 1.59Q8.58 1.59 7.99 1.86Q7.91 1.9 7.83 1.95Q7.45 2.15 7.17 2.44Q6.96 2.66 6.81 2.92Q6.75 3.02 6.69 3.14Q6.45 3.67 6.45 4.32Q6.45 4.97 6.69 5.51Q6.74 5.63 6.81 5.74Q6.97 6.01 7.18 6.23Q7.46 6.52 7.83 6.72Q7.9 6.76 7.98 6.79ZM14.43 6.79Q15.02 7.07 15.74 7.07Q16.5 7.07 17.11 6.77Q17.16 6.74 17.2 6.72Q17.58 6.52 17.85 6.23Q18.06 6.01 18.22 5.74Q18.29 5.62 18.34 5.5Q18.58 4.97 18.58 4.32Q18.58 3.68 18.34 3.15Q18.28 3.03 18.22 2.92Q18.07 2.66 17.87 2.45Q17.59 2.15 17.2 1.95Q17.15 1.92 17.1 1.89Q16.49 1.59 15.74 1.59Q15.03 1.59 14.44 1.86Q14.36 1.9 14.28 1.95Q13.9 2.15 13.62 2.44Q13.41 2.66 13.26 2.92Q13.2 3.02 13.14 3.14Q12.9 3.67 12.9 4.32Q12.9 4.97 13.14 5.51Q13.19 5.63 13.26 5.74Q13.42 6.01 13.63 6.23Q13.91 6.52 14.28 6.72Q14.35 6.76 14.43 6.79ZM28.85 4.72Q28.86 4.49 28.86 4.36Q28.86 3.54 28.52 2.91Q28.33 2.57 28.07 2.32Q27.84 2.1 27.56 1.94Q27.49 1.9 27.42 1.87Q26.86 1.59 26.16 1.59Q25.51 1.59 24.96 1.84Q24.85 1.89 24.74 1.95Q24.42 2.12 24.17 2.37Q23.93 2.61 23.76 2.92Q23.69 3.04 23.63 3.17Q23.41 3.7 23.41 4.32Q23.41 4.97 23.65 5.51Q23.7 5.63 23.77 5.74Q23.9 5.97 24.07 6.16Q24.38 6.49 24.8 6.72Q25.48 7.07 26.36 7.07Q27.05 7.07 27.6 6.85Q28 6.68 28.3 6.41Q28.41 6.31 28.51 6.19L27.83 5.43Q27.63 5.64 27.38 5.77Q26.95 6 26.38 6Q25.76 6 25.31 5.72Q25.27 5.69 25.23 5.66Q25.03 5.51 24.9 5.32Q24.72 5.06 24.66 4.72L28.85 4.72ZM33.73 6.99Q34.16 7.07 34.61 7.07Q35.72 7.07 36.37 6.62Q36.74 6.36 36.9 6.01Q37.03 5.74 37.03 5.42Q37.03 4.87 36.75 4.56Q36.74 4.55 36.73 4.53Q36.59 4.38 36.42 4.28Q36.24 4.16 36.02 4.09Q35.61 3.97 34.97 3.87Q34.33 3.76 34.03 3.63Q33.85 3.56 33.78 3.42Q33.72 3.33 33.72 3.21Q33.72 3.12 33.75 3.05Q33.81 2.88 34.01 2.77Q34.3 2.61 34.84 2.61Q35.49 2.61 36.04 2.84Q36.21 2.91 36.38 3.01L36.85 2.06Q36.51 1.85 35.95 1.72Q35.4 1.59 34.85 1.59Q33.78 1.59 33.14 2.05Q32.8 2.29 32.64 2.62Q32.51 2.91 32.51 3.26Q32.51 3.81 32.78 4.13Q32.79 4.15 32.81 4.17Q32.99 4.36 33.21 4.49Q33.36 4.57 33.53 4.62Q33.94 4.75 34.61 4.85Q35.24 4.95 35.52 5.07Q35.68 5.13 35.75 5.25Q35.8 5.34 35.8 5.45Q35.8 5.58 35.75 5.68Q35.56 6.05 34.68 6.05Q34.2 6.05 33.69 5.9Q33.18 5.75 32.83 5.52L32.34 6.47Q32.72 6.72 33.33 6.89Q33.53 6.95 33.73 6.99ZM25.42 2.77Q25.75 2.6 26.16 2.6Q26.6 2.6 26.94 2.78Q27.07 2.85 27.19 2.96Q27.33 3.09 27.44 3.24Q27.62 3.52 27.68 3.89L24.65 3.89Q24.71 3.5 24.91 3.21Q25.01 3.07 25.15 2.95Q25.28 2.84 25.42 2.77ZM10.05 5.82Q9.71 5.99 9.29 5.99Q8.85 5.99 8.52 5.81Q8.32 5.71 8.15 5.54Q8.05 5.43 7.97 5.32Q7.71 4.91 7.71 4.32Q7.71 3.75 7.97 3.34Q8.05 3.22 8.15 3.12Q8.32 2.94 8.52 2.83Q8.86 2.65 9.29 2.65Q9.71 2.65 10.04 2.83Q10.25 2.94 10.43 3.12Q10.53 3.23 10.61 3.35Q10.87 3.75 10.87 4.32Q10.87 4.9 10.61 5.3Q10.53 5.43 10.43 5.54Q10.25 5.71 10.05 5.82ZM16.5 5.82Q16.16 5.99 15.74 5.99Q15.3 5.99 14.97 5.81Q14.77 5.71 14.6 5.54Q14.5 5.43 14.42 5.32Q14.16 4.91 14.16 4.32Q14.16 3.75 14.42 3.34Q14.5 3.22 14.6 3.12Q14.77 2.94 14.97 2.83Q15.31 2.65 15.74 2.65Q16.16 2.65 16.49 2.83Q16.7 2.94 16.88 3.12Q16.98 3.23 17.06 3.35Q17.32 3.75 17.32 4.32Q17.32 4.9 17.06 5.3Q16.98 5.43 16.88 5.54Q16.7 5.71 16.5 5.82Z" fill="#192252" fill-opacity="1.000000" fill-rule="evenodd"/>
</svg>
